<svg width="11" height="17" viewBox="0 0 11 17" fill="none" xmlns="http://www.w3.org/2000/svg">
<path d="M10.7337 6.5547C10.7028 6.50019 10.658 6.45485 10.6039 6.4233C10.5497 6.39176 10.4882 6.37513 10.4256 6.37513H5.78598L6.56382 0.43195C6.57216 0.35241 6.5535 0.272375 6.51083 0.204732C6.46816 0.137089 6.40397 0.0857745 6.32859 0.0590497C6.25321 0.0323249 6.17103 0.0317453 6.09528 0.0574043C6.01953 0.0830633 5.95462 0.133468 5.911 0.200502L0.26877 10.0855C0.235776 10.1391 0.217693 10.2006 0.216385 10.2636C0.215077 10.3266 0.230591 10.3888 0.261329 10.4438C0.292066 10.4988 0.336914 10.5446 0.391248 10.5764C0.445582 10.6083 0.507436 10.6251 0.570432 10.6251H5.14069L4.52426 16.5773C4.5182 16.6565 4.53883 16.7355 4.58286 16.8017C4.62688 16.8679 4.69178 16.9175 4.76723 16.9425C4.84268 16.9676 4.92433 16.9667 4.99921 16.94C5.07409 16.9133 5.13788 16.8623 5.18044 16.7952L10.7294 6.91125C10.7616 6.85751 10.779 6.79619 10.7797 6.73355C10.7805 6.67091 10.7646 6.60919 10.7337 6.5547Z" fill="#ED3F3A"/>
</svg>
