<svg width="162" height="38" viewBox="0 0 162 38" fill="none" xmlns="http://www.w3.org/2000/svg">
<path fill-rule="evenodd" clip-rule="evenodd" d="M149.182 25.7713V1.69678C147.717 1.69678 146.253 1.69678 144.787 1.69678C143.322 1.69678 142.577 1.78179 142.068 2.217C141.335 2.84412 141.439 5.34436 141.335 6.28139L140.706 18.2671C140.601 20.039 140.288 21.6016 139.869 22.7483C139.45 23.8944 138.926 24.9371 138.299 25.771H149.182V25.7713ZM159.646 36.0885C159.332 34.2129 158.598 32.2325 158.076 31.0858C157.449 29.8351 156.298 27.9597 155.356 27.4386C154.518 27.0218 153.68 26.8127 152.948 26.7093C148.076 26.1983 143.796 26.4625 140.706 26.6053C140.022 26.637 139.555 26.8127 138.926 27.1255C138.089 27.5423 137.043 29.1058 136.416 30.2519C135.789 31.3989 135.16 34.0038 134.846 36.0885H133.173L133.59 25.7713H136.729C137.463 24.7287 138.089 23.6863 138.507 22.4359C138.926 21.2892 139.24 19.9344 139.24 18.2671L139.765 7.94896C139.765 6.28171 140.077 4.71914 139.45 2.9469C139.24 2.11296 138.299 1.69678 136.834 1.69678C136.729 1.69678 136.624 1.69678 136.521 1.69678C136.416 1.69678 136.311 1.69678 136.206 1.69678H135.892V0.862837H136.206H156.82V25.771H160.692L161.11 36.0882H159.646V36.0885ZM121.14 12.7436V1.69678H118.627C116.849 1.69678 115.594 2.00923 114.861 2.53009C114.128 3.15562 113.689 3.77481 113.5 4.50978C112.922 6.75626 112.978 10.2427 114.443 11.4928C115.071 12.0137 115.804 12.4314 116.641 12.6389C117.373 12.7436 118.106 12.7436 118.733 12.7436H121.14ZM121.14 26.6049V13.5778H118C116.431 13.5778 115.383 13.89 114.756 14.6192C114.234 15.3488 114.017 15.8674 113.741 16.8673C112.999 19.549 113.5 22.4356 112.349 25.0405C111.721 26.3953 110.152 27.1249 107.641 27.1249C107.014 27.1249 106.491 27.1249 105.863 27.0211C105.337 26.9342 104.882 26.8812 104.189 26.6049C103.664 26.3962 103.141 26.0831 102.724 25.771L103.247 24.8321C103.351 24.9371 104.281 25.4046 104.607 25.4586C105.226 25.5601 105.693 25.115 105.967 24.6243C106.291 24.0435 106.305 23.5902 106.385 22.957C106.412 22.7499 106.491 21.915 106.491 21.915C106.491 21.8113 106.596 20.9761 106.596 20.873C106.699 18.7883 107.223 17.1207 107.955 15.9743C108.688 14.7242 110.99 13.7583 114.651 13.1328C112.245 12.925 110.362 12.3268 109.212 11.7012C107.118 10.5548 106.072 9.0963 106.072 6.80257C106.072 4.9266 106.699 3.57243 108.06 2.73849C109.315 1.90455 110.781 1.38369 112.454 1.07061C114.025 0.862837 115.699 0.862837 117.268 0.862837H128.778V26.6049H121.14ZM78.0296 1.69678V0.862837H78.343H99.2693V26.6049H91.6328V1.69678H88.3882C86.7149 1.69678 85.6674 2.00923 85.1451 2.53009C84.725 3.05094 84.3377 3.55562 84.2027 4.30201C84.0122 5.35324 83.8877 6.5948 83.8877 7.74119C83.7842 8.99226 83.7842 10.2424 83.7842 11.4928C83.7842 11.9096 83.6759 15.7885 83.6769 16.1012C83.6883 19.5766 83.6441 21.2549 83.0221 23.8808C82.5026 26.0704 80.9583 27.1255 78.7618 27.1255C77.6108 27.1255 76.2499 26.9177 75.3088 26.0838C74.4715 25.3545 73.948 24.3125 73.8425 23.1664C73.6352 22.1234 73.8425 21.1858 74.6798 20.3518C75.3085 19.8303 76.041 19.5185 77.0885 19.5185C78.0293 19.5185 78.8666 19.6226 79.5987 20.3518C80.3309 21.0817 80.8023 22.7766 80.2265 23.791C80.0602 24.0841 80.0602 24.0841 79.8077 24.4172C79.5806 24.7166 78.7853 25.1268 79.1083 25.6422C79.3229 25.9848 79.4936 25.9791 79.8077 25.875C80.5402 25.667 81.1685 25.2498 81.4826 24.5206C81.901 23.7907 82.13 22.8191 82.3017 21.8912C82.531 20.6516 82.5472 18.67 82.5472 18.67C82.5472 18.3575 82.6335 9.30503 82.6335 8.47108C82.6335 7.74182 82.6335 6.90756 82.6335 6.28203C82.6335 4.09392 82.2147 2.73913 81.4826 2.322C80.75 1.90487 79.8077 1.6971 78.8672 1.6971H78.0296V1.69678ZM73.3206 9.0963H73.6355L73.5292 0.862837H54.3815V26.6049H62.0209V1.69678H64.95C67.2522 1.69678 68.822 2.32168 69.8676 3.57275C70.8087 4.82319 71.6457 6.69947 72.1696 9.0963H73.3206ZM0.598267 35.0468V37.3399H1.74957V36.0888H5.30731V37.3399H6.5618V35.0468H5.8293V30.1482H1.95945V32.0241C1.95945 33.0665 1.85435 34.0038 1.22726 35.0468H0.598267ZM4.67863 31.1902V35.0468H2.48144C3.00565 34.1079 3.11012 33.1702 3.11012 32.0241V31.1902H4.67863ZM11.2724 30.1479V36.0885H14.8289V35.0468H12.5266V33.4833H14.62V32.5456H12.5266V31.1902H14.8289V30.1482H11.2724V30.1479ZM20.5838 30.1479V32.0238C20.5838 33.4833 20.6889 35.1505 19.7465 35.1505C19.6418 35.1505 19.4332 35.1505 19.4332 35.1505L19.3281 36.0882C19.5379 36.0882 19.7465 36.1926 19.9567 36.1926C21.7348 36.1926 21.6297 34.42 21.6297 32.336V31.1899H23.3046V36.0882H24.4553V30.1475H20.5838V30.1479ZM32.4074 30.0441C30.8376 30.0441 29.478 30.9812 29.478 33.0662C29.478 35.2543 30.8376 36.1926 32.4074 36.1926C33.8721 36.1926 35.3383 35.2543 35.3383 33.0662C35.3383 30.9812 33.8721 30.0441 32.4074 30.0441ZM32.4074 30.8777C32.8259 30.8777 33.9768 31.0855 33.9768 33.0662C33.9768 35.1505 32.8259 35.2543 32.4074 35.2543C31.8854 35.2543 30.7344 35.1505 30.7344 33.0662C30.7344 31.0855 31.8854 30.8777 32.4074 30.8777ZM40.2557 30.1479V36.0885H42.1388C44.0223 36.0885 44.5459 35.1509 44.5459 34.4203C44.5459 33.6917 44.0223 33.0662 43.2898 32.9615C43.7086 32.8568 44.2322 32.4403 44.2322 31.6073C44.2322 30.564 43.3949 30.1475 42.2439 30.1475H40.2557V30.1479ZM41.5118 31.0855H42.0337C42.9764 31.0855 42.9764 31.6076 42.9764 31.8151C42.9764 32.0238 42.8713 32.5456 42.0337 32.5456H41.5118V31.0855ZM41.5118 33.4833H42.1388C42.9764 33.4833 43.1851 33.9004 43.1851 34.3169C43.1851 34.7334 42.8713 35.1509 42.1388 35.1509H41.5118V33.4833ZM51.4518 30.1479L49.1495 36.0885H50.4059L50.9295 34.7337H53.4401L53.8573 36.0885H55.2182L52.9165 30.1479H51.4518ZM51.3467 33.7954L52.184 31.2946L53.0213 33.7954H51.3467ZM64.2175 30.1479H62.333C61.8104 30.1479 59.9272 30.1479 59.9272 31.9198C59.9272 33.0662 60.6594 33.4833 61.0782 33.587L59.7176 36.0885H61.0782L62.333 33.9007H62.9614V36.0885H64.2175V30.1479ZM62.9614 32.9615H62.333C62.1244 32.9615 61.1817 32.9615 61.1817 32.0238C61.1817 31.7107 61.2881 31.0855 62.333 31.0855H62.9614V32.9615ZM77.4022 30.1479V36.0885H78.5535V31.1902H81.0637V30.1482H77.4022V30.1479ZM87.656 30.1479L85.2492 36.0885H86.505L87.0273 34.7337H89.5395L89.9579 36.0885H91.4229L89.0172 30.1479H87.656ZM87.448 33.7954L88.2834 31.2946L89.121 33.7954H87.448ZM96.8639 33.4833H97.5964C97.805 33.4833 98.747 33.4833 98.747 34.4203C98.747 34.7334 98.5375 35.1509 97.5964 35.1509C97.3862 35.1509 96.8639 35.1509 96.0266 34.7337L95.9215 35.7754C96.5505 35.9848 96.9674 36.1929 97.7015 36.1929C98.5375 36.1929 100.107 35.8801 100.107 34.5247C100.107 33.4833 99.5846 33.0662 98.8512 32.9615V32.8568C99.5849 32.7537 99.8983 32.1275 99.8983 31.5023C99.8983 30.6687 99.2693 30.0438 97.9104 30.0438C97.1776 30.0438 96.7591 30.1475 96.132 30.3559L96.2355 31.3983C96.7591 31.0852 97.1776 30.9808 97.5964 30.9808C98.3289 30.9808 98.5375 31.3983 98.5375 31.7104C98.5375 32.2322 98.2253 32.4403 97.5964 32.4403H96.8639V33.4833ZM105.131 30.1479V36.0885H108.687V35.0468H106.385V33.4833H108.478V32.5456H106.385V31.1902H108.687V30.1482H105.131V30.1479ZM113.291 30.1479V31.1899H114.966V36.0882H116.221V31.1899H117.895V30.1479H113.291ZM124.593 30.1479L122.186 36.0885H123.442L123.964 34.7337H126.476L126.895 36.0885H128.255L125.953 30.1479H124.593ZM124.384 33.7954L125.22 31.2946L126.057 33.7954H124.384ZM9.07397 11.8049H11.4814C12.8409 11.8049 13.8884 11.4928 14.8292 10.867C15.7713 10.2424 16.2939 9.30439 16.2939 7.94864V5.34436C16.2939 4.19733 16.0592 3.37989 15.4579 2.84285C14.8955 2.34071 14.3429 2.03936 13.6846 1.85475C13.269 1.73833 12.8409 1.69646 12.4234 1.69646C12.1084 1.69646 11.7947 1.69646 11.4814 1.69646H9.07397V11.8049ZM9.07397 25.7713H11.2724C13.2594 25.7713 14.8289 25.3545 15.6662 24.6246C16.5035 23.7907 16.9223 22.5406 16.9223 20.7686C16.9223 19.2054 17.1309 17.4341 16.7124 15.8706C16.5035 15.0367 15.9799 14.3074 15.3528 13.6819C14.6203 12.952 13.3642 12.6392 11.7947 12.6392H9.07397V25.7713ZM15.1426 0.862837C18.286 1.07219 19.1191 1.48742 20.7924 2.217C22.5724 2.9469 23.4097 4.30201 23.4097 6.28139C23.4097 7.63714 22.8858 8.78354 21.8399 9.61652C20.7921 10.4505 19.7465 11.0757 18.4905 11.4925C17.863 11.7009 17.235 11.8002 16.7124 11.9093C16.0391 12.0505 15.5611 12.1177 15.0391 12.2214L15.1426 12.2678C18.7007 12.997 21.1074 14.0974 22.3619 15.4532C23.618 16.8073 24.2467 18.2668 24.2467 19.7266C24.2467 21.811 23.618 23.2695 22.3619 24.2075C21.2112 25.2492 19.8516 25.8744 18.2819 26.1878C17.3407 26.3953 16.3984 26.5 15.5608 26.6046C14.62 26.6046 1.43555 26.6046 1.43555 26.6046V0.862837C1.43587 0.862837 14.6216 0.828262 15.1426 0.862837ZM29.3732 4.82287C30.0019 3.36308 31.0478 1.79987 32.6176 1.17497C35.1282 0.0285786 37.7438 0.236985 40.4659 0.236985C43.7086 0.236985 48.8362 2.00891 48.8362 6.07267C48.8362 7.74055 48.2183 8.9082 47.1613 9.72025C46.1007 10.5355 44.9647 11.18 43.7086 11.4922C43.2898 11.5969 42.7663 11.7006 42.349 11.8043C41.9302 11.909 41.0637 12.1222 40.6452 12.2268L40.9971 12.3249C43.1936 12.8457 45.0682 13.4725 46.7428 14.5142C48.5212 15.4528 49.4986 17.4335 49.4636 19.5172C49.4562 19.9493 49.3355 20.8387 49.255 21.1845C48.91 22.6624 47.789 23.9984 46.0106 25.2486C43.0815 27.3336 39.6283 27.1242 36.1753 27.1242C33.3498 27.2286 31.2567 26.604 29.792 25.4576C28.3273 24.4156 27.4964 23.2762 27.1764 21.8103C27.1158 21.534 27.0713 20.7674 27.0713 20.5593C27.0713 19.5172 27.3865 18.6823 28.0133 18.0578C28.641 17.4329 29.3732 17.1198 30.4207 17.1198H30.7344C31.7803 17.1198 32.5125 17.4329 32.931 17.9531C33.4545 18.5793 33.6631 19.2042 33.7682 19.9334C33.7682 20.0381 33.7682 20.0381 33.7682 20.0381C33.7682 20.6636 33.5574 21.0789 33.2447 21.3926C32.8249 21.8129 32.5122 22.0184 32.0937 22.3312C31.8309 22.4828 31.0475 23.0605 30.9424 23.1651C30.8373 23.2689 30.7627 23.3659 30.7341 23.5813C30.7131 23.7358 30.7341 23.7894 30.7341 23.8934C30.7341 23.8934 30.7564 23.9921 30.8121 24.1402C31.0083 24.6671 31.6749 25.1445 32.6173 25.5613C33.558 26.0822 34.8138 26.2906 36.2788 26.2906C37.8486 26.2906 38.8958 25.8735 39.5232 25.1445C40.1503 24.3109 40.5742 23.5823 40.7789 22.643C40.8742 22.2078 40.8828 21.9137 40.8828 21.4966C40.8828 21.1842 40.8828 20.8717 40.8828 20.559V18.1615C40.8828 17.849 40.8828 17.4329 40.8828 17.0157C40.8828 16.5989 40.807 16.152 40.6283 15.6191C40.391 14.9095 39.9417 14.2015 39.3143 13.5769C38.5821 12.9504 37.5346 12.6379 36.0699 12.6379H32.8259V11.804H36.3839C37.7435 11.804 38.7907 11.3878 39.4181 10.6579C40.1503 9.92929 40.4659 8.99131 40.4659 7.74024V5.44745C40.4659 3.88425 40.1506 2.73754 39.4181 2.112C38.7907 1.48647 37.8486 1.2787 36.9075 1.2787C35.1278 1.2787 33.3498 1.79892 32.0937 2.94595C31.4663 3.57148 31.0475 4.30074 30.629 5.23905L29.3732 4.82287Z" fill="black"/>
</svg>
