<svg width="13" height="13" viewBox="0 0 13 13" fill="none" xmlns="http://www.w3.org/2000/svg">
<g clip-path="url(#clip0_1_27)">
<path d="M9.28571 8.17143H8.69143L8.4686 7.94857C9.21146 7.13143 9.65717 6.01714 9.65717 4.82857C9.65714 2.15429 7.50286 0 4.82857 0C2.15429 0 0 2.15429 0 4.82857C0 7.50286 2.15429 9.65714 4.82857 9.65714C6.01714 9.65714 7.13143 9.21143 7.94857 8.46857L8.17143 8.6914V9.28568L11.8857 13L13 11.8857L9.28571 8.17143ZM4.82857 8.17143C2.97143 8.17143 1.48571 6.68571 1.48571 4.82857C1.48571 2.97143 2.97143 1.48571 4.82857 1.48571C6.68571 1.48571 8.17143 2.97143 8.17143 4.82857C8.17143 6.68571 6.68571 8.17143 4.82857 8.17143Z" fill="#656565"/>
</g>
<defs>
<clipPath id="clip0_1_27">
<rect width="13" height="13" fill="white"/>
</clipPath>
</defs>
</svg>
