<svg width="14" height="14" viewBox="0 0 14 14" fill="none" xmlns="http://www.w3.org/2000/svg">
<g clip-path="url(#clip0_1_719)">
<path d="M11.2463 7.46797C11.6039 8.16657 11.1979 8.50051 10.2716 9.07099C9.48409 9.5545 8.39617 9.73132 7.69734 9.80205C7.98376 10.0757 6.67126 8.82111 10.4513 12.4347C11.2528 13.1982 9.96242 14.4233 9.16151 13.676L6.99326 11.5975C6.16317 12.3912 5.36751 13.1519 4.82501 13.6789C4.02351 14.4291 2.73376 13.2145 3.52651 12.4376C3.58601 12.3814 6.46476 9.63683 6.28917 9.80495C5.58159 9.73422 4.51001 9.54696 3.73184 9.07389L3.73242 9.07331C2.80609 8.49993 2.40009 8.16657 2.75242 7.46797C2.96534 7.07142 3.53934 6.7398 4.30351 7.31318C4.30351 7.31318 5.33542 8.09874 6.99967 8.09874C8.66451 8.09874 9.69584 7.31318 9.69584 7.31318C10.4594 6.7369 11.0358 7.07142 11.2463 7.46797Z" fill="#D5D5D5"/>
<path d="M7.00053 7.03936C4.9717 7.03936 3.31503 5.46359 3.31503 3.52374C3.31503 1.57577 4.9717 0 7.00053 0C9.02995 0 10.6866 1.57577 10.6866 3.52374C10.6866 5.46359 9.02995 7.03936 7.00053 7.03936ZM7.00053 1.78506C6.00362 1.78506 5.19045 2.56251 5.19045 3.52374C5.19045 4.47685 6.00362 5.2543 7.00053 5.2543C7.99745 5.2543 8.81062 4.47685 8.81062 3.52374C8.8112 2.56193 7.99803 1.78506 7.00053 1.78506Z" fill="#D5D5D5"/>
</g>
<defs>
<clipPath id="clip0_1_719">
<rect width="14" height="13.9141" fill="white" transform="matrix(-1 0 0 1 14 0)"/>
</clipPath>
</defs>
</svg>
