<svg width="12" height="12" viewBox="0 0 12 12" fill="none" xmlns="http://www.w3.org/2000/svg">
<g clip-path="url(#clip0_1_711)">
<path d="M12 2.26533C11.5538 2.45988 11.0782 2.58883 10.5825 2.65144C11.0925 2.34881 11.4818 1.87325 11.6648 1.30004C11.1892 1.5818 10.6642 1.78082 10.1047 1.89189C9.65325 1.41409 9.00975 1.11816 8.30775 1.11816C6.94575 1.11816 5.84925 2.21688 5.84925 3.56381C5.84925 3.75761 5.86575 3.94396 5.90625 4.12137C3.861 4.02223 2.05125 3.048 0.8355 1.56391C0.62325 1.9299 0.49875 2.34881 0.49875 2.79978C0.49875 3.64655 0.9375 4.39716 1.5915 4.83173C1.19625 4.82428 0.8085 4.71023 0.48 4.53059C0.48 4.53804 0.48 4.54773 0.48 4.55742C0.48 5.74559 1.33275 6.73249 2.451 6.95984C2.25075 7.01425 2.0325 7.04034 1.806 7.04034C1.6485 7.04034 1.4895 7.03139 1.34025 6.9986C1.659 7.96687 2.5635 8.67872 3.639 8.70183C2.802 9.35256 1.73925 9.74464 0.58875 9.74464C0.387 9.74464 0.1935 9.73569 0 9.71109C1.08975 10.4095 2.38125 10.8083 3.774 10.8083C8.301 10.8083 10.776 7.08134 10.776 3.85079C10.776 3.74271 10.7723 3.63835 10.767 3.53474C11.2552 3.19037 11.6655 2.76027 12 2.26533Z" fill="#D5D5D5"/>
</g>
<defs>
<clipPath id="clip0_1_711">
<rect width="12" height="11.9263" fill="white"/>
</clipPath>
</defs>
</svg>
