<svg width="14" height="14" viewBox="0 0 14 14" fill="none" xmlns="http://www.w3.org/2000/svg">
<g clip-path="url(#clip0_1_715)">
<path d="M13.8751 10.0687C13.8375 10.0061 13.6047 9.50337 12.4847 8.47017C11.3121 7.38827 11.4696 7.56395 12.8819 5.69324C13.7421 4.55394 14.086 3.85819 13.9784 3.56075C13.876 3.27723 13.2433 3.35202 13.2433 3.35202L11.1397 3.3642C11.1397 3.3642 10.9839 3.34333 10.8675 3.41203C10.7546 3.47987 10.682 3.63641 10.682 3.63641C10.682 3.63641 10.3486 4.51828 9.90409 5.26796C8.96689 6.84993 8.59149 6.93342 8.43835 6.83515C8.0822 6.60642 8.17146 5.91501 8.17146 5.4245C8.17146 3.89123 8.4051 3.25201 7.71555 3.08677C7.48628 3.03198 7.31827 2.99545 6.73285 2.98936C5.98205 2.98153 5.34587 2.99197 4.98622 3.16678C4.74645 3.28332 4.56182 3.54336 4.6747 3.55814C4.81383 3.57641 5.12886 3.6425 5.29599 3.86862C5.51214 4.15997 5.50426 4.81572 5.50426 4.81572C5.50426 4.81572 5.62852 6.62033 5.21461 6.84471C4.93022 6.99865 4.54081 6.68469 3.70513 5.24883C3.27722 4.51393 2.95345 3.70077 2.95345 3.70077C2.95345 3.70077 2.89132 3.54944 2.78018 3.46856C2.64542 3.37029 2.45641 3.33898 2.45641 3.33898L0.456013 3.35115C0.456013 3.35115 0.155865 3.35985 0.0456072 3.48944C-0.0524001 3.60511 0.0377316 3.8434 0.0377316 3.8434C0.0377316 3.8434 1.6041 7.48481 3.37698 9.32073C5.00372 11.0036 6.85011 10.8931 6.85011 10.8931H7.68667C7.68667 10.8931 7.93957 10.8653 8.0682 10.727C8.18721 10.6001 8.18283 10.3618 8.18283 10.3618C8.18283 10.3618 8.16621 9.24594 8.68775 9.08157C9.20141 8.9198 9.86121 10.16 10.5604 10.6374C11.0889 10.9984 11.4906 10.9192 11.4906 10.9192L13.3606 10.8931C13.3606 10.8931 14.3389 10.8331 13.8751 10.0687Z" fill="#D5D5D5"/>
</g>
<defs>
<clipPath id="clip0_1_715">
<rect width="14" height="13.9141" fill="white"/>
</clipPath>
</defs>
</svg>
