<svg width="76" height="57" viewBox="0 0 76 57" fill="none" xmlns="http://www.w3.org/2000/svg">
<path d="M75.3684 28.3981C75.3684 36.0238 71.2332 42.9664 64.4706 48.0198C57.7078 53.0733 48.342 56.2138 37.9755 56.2138C27.6089 56.2138 18.2431 53.0733 11.4804 48.0198C4.71775 42.9664 0.58252 36.0238 0.58252 28.3981C0.58252 20.7725 4.71775 13.8299 11.4804 8.7765C18.2431 3.72302 27.6089 0.58252 37.9755 0.58252C48.342 0.58252 57.7078 3.72302 64.4706 8.7765C71.2332 13.8299 75.3684 20.7725 75.3684 28.3981Z" stroke="black"/>
<path d="M18.1904 39.3903C18.1904 39.0572 18.2637 38.7685 18.4102 38.5242C18.5613 38.2755 18.7567 38.0845 18.9965 37.9512C19.2408 37.8135 19.5051 37.7447 19.7894 37.7447C20.0115 37.7447 20.2113 37.7736 20.389 37.8313C20.5667 37.8891 20.7266 37.969 20.8687 38.0712C21.0153 38.1689 21.1419 38.2799 21.2485 38.4043V37.4715C21.053 37.3116 20.8421 37.1895 20.6155 37.1051C20.389 37.0207 20.1047 36.9785 19.7627 36.9785C19.4207 36.9785 19.1009 37.0363 18.8033 37.1517C18.5102 37.2672 18.2548 37.4338 18.0371 37.6514C17.8195 37.8691 17.6485 38.1267 17.5241 38.4243C17.4042 38.7174 17.3442 39.0394 17.3442 39.3903C17.3442 39.7412 17.4042 40.0655 17.5241 40.3631C17.6485 40.6562 17.8195 40.9116 18.0371 41.1293C18.2548 41.3469 18.5102 41.5135 18.8033 41.6289C19.1009 41.7444 19.4207 41.8022 19.7627 41.8022C20.1047 41.8022 20.389 41.76 20.6155 41.6756C20.8421 41.5912 21.053 41.469 21.2485 41.3091V40.3764C21.1419 40.5008 21.0153 40.614 20.8687 40.7162C20.7266 40.8139 20.5667 40.8916 20.389 40.9494C20.2113 41.0071 20.0115 41.036 19.7894 41.036C19.5051 41.036 19.2408 40.9694 18.9965 40.8361C18.7567 40.6984 18.5613 40.5052 18.4102 40.2565C18.2637 40.0077 18.1904 39.719 18.1904 39.3903Z" fill="black"/>
<path d="M24.8023 38.6575H22.0906V41.7222H22.7969V39.3037H24.0961V41.7222H24.8023V38.6575Z" fill="black"/>
<path d="M25.8478 40.3564H28.5394C28.5483 40.3164 28.5527 40.2809 28.5527 40.2498C28.5527 40.2143 28.5527 40.1832 28.5527 40.1565C28.5527 39.8323 28.4906 39.5547 28.3662 39.3237C28.2418 39.0883 28.0642 38.9084 27.8332 38.7841C27.6067 38.6552 27.3357 38.5908 27.0204 38.5908C26.7317 38.5908 26.4763 38.6441 26.2542 38.7507C26.0321 38.8573 25.8522 39.0061 25.7145 39.1971C25.5813 39.3881 25.4924 39.6102 25.448 39.8634C25.4391 39.9167 25.4325 39.97 25.428 40.0233C25.4236 40.0766 25.4214 40.1321 25.4214 40.1898C25.4214 40.4963 25.4858 40.7717 25.6146 41.016C25.7434 41.2558 25.9255 41.4446 26.1609 41.5823C26.3963 41.72 26.6717 41.7888 26.9871 41.7888C27.2669 41.7888 27.5001 41.7555 27.6866 41.6889C27.8776 41.6178 28.0375 41.5201 28.1663 41.3958C28.2996 41.2714 28.4173 41.127 28.5194 40.9627L27.8998 40.7095C27.8421 40.8072 27.771 40.8938 27.6866 40.9694C27.6022 41.0404 27.5045 41.0959 27.3935 41.1359C27.2869 41.1759 27.1625 41.1959 27.0204 41.1959C26.8471 41.1959 26.6939 41.1603 26.5607 41.0893C26.4319 41.0138 26.3297 40.9027 26.2542 40.7562C26.1831 40.6051 26.1476 40.4164 26.1476 40.1898L26.1609 40.0033C26.1609 39.8256 26.1987 39.6724 26.2742 39.5436C26.3497 39.4103 26.4518 39.3104 26.5806 39.2438C26.7095 39.1727 26.8538 39.1372 27.0137 39.1372C27.1692 39.1372 27.3002 39.1683 27.4068 39.2304C27.5134 39.2882 27.5956 39.3726 27.6533 39.4836C27.7155 39.5902 27.7555 39.7168 27.7732 39.8634H25.8478V40.3564Z" fill="black"/>
<path d="M31.9111 41.0893V38.6575H31.1849V41.0893H29.899V38.6575H29.1794V41.7222H31.7845V42.3552H32.4441V41.0893H31.9111Z" fill="black"/>
<path d="M35.8014 39.3237L35.8347 38.4243L33.0831 41.056L33.0498 41.9554L35.8014 39.3237ZM33.756 38.6575H33.0498V41.9554L33.756 41.1426V38.6575ZM35.8347 38.4243L35.1285 39.2371V41.7222H35.8347V38.4243Z" fill="black"/>
<path d="M37.1702 40.8161C37.1702 40.7095 37.1947 40.6185 37.2435 40.543C37.2968 40.463 37.3745 40.403 37.4767 40.3631C37.5833 40.3186 37.7121 40.2964 37.8631 40.2964C38.0497 40.2964 38.214 40.3209 38.3561 40.3697C38.4983 40.4141 38.6382 40.4874 38.7759 40.5896V40.2098C38.7404 40.1654 38.676 40.1143 38.5827 40.0566C38.4894 39.9988 38.3717 39.9478 38.2296 39.9034C38.0919 39.8589 37.9342 39.8367 37.7565 39.8367C37.49 39.8367 37.2568 39.8767 37.057 39.9567C36.8615 40.0366 36.7105 40.1521 36.6039 40.3031C36.4973 40.4541 36.444 40.634 36.444 40.8428C36.444 41.0515 36.4906 41.227 36.5839 41.3691C36.6816 41.5068 36.8104 41.6112 36.9704 41.6822C37.1347 41.7533 37.3168 41.7888 37.5167 41.7888C37.7299 41.7888 37.9231 41.7533 38.0963 41.6822C38.2695 41.6067 38.4072 41.5001 38.5094 41.3624C38.6115 41.2203 38.6626 41.0515 38.6626 40.8561L38.556 40.5096C38.556 40.6873 38.5205 40.8294 38.4494 40.936C38.3784 41.0426 38.2806 41.1204 38.1563 41.1692C38.0319 41.2181 37.892 41.2425 37.7365 41.2425C37.6299 41.2425 37.5344 41.227 37.4501 41.1959C37.3657 41.1603 37.2968 41.1115 37.2435 41.0493C37.1947 40.9871 37.1702 40.9094 37.1702 40.8161ZM37.0103 39.4636C37.0592 39.4325 37.128 39.3948 37.2169 39.3504C37.3101 39.3015 37.419 39.2593 37.5433 39.2238C37.6677 39.1882 37.8032 39.1705 37.9497 39.1705C38.1185 39.1705 38.2607 39.2105 38.3761 39.2904C38.4961 39.3659 38.556 39.4747 38.556 39.6169V41.7222H39.2623V39.5369C39.2623 39.3326 39.2067 39.1616 39.0957 39.0239C38.9891 38.8818 38.8403 38.7729 38.6493 38.6974C38.4583 38.6219 38.2362 38.5842 37.983 38.5842C37.7077 38.5842 37.4634 38.6242 37.2502 38.7041C37.037 38.7841 36.8615 38.8662 36.7238 38.9506L37.0103 39.4636Z" fill="black"/>
<path d="M42.9385 38.6575H40.1336V40.5563C40.1336 40.7562 40.0848 40.8916 39.9871 40.9627C39.8938 41.0338 39.7805 41.0693 39.6473 41.0693V41.7222C39.9315 41.7222 40.1603 41.6845 40.3335 41.609C40.5112 41.529 40.64 41.4113 40.7199 41.2558C40.7999 41.0959 40.8399 40.8961 40.8399 40.6562V39.3237H42.2323V41.7222H42.9385V38.6575Z" fill="black"/>
<path d="M43.8779 38.6575V41.7222H44.6041V38.6575H43.8779ZM44.3842 40.3098H45.2637C45.428 40.3098 45.5501 40.3453 45.6301 40.4164C45.7145 40.4874 45.7567 40.5896 45.7567 40.7228C45.7567 40.8072 45.7367 40.8805 45.6967 40.9427C45.6612 41.0049 45.6057 41.0515 45.5302 41.0826C45.4591 41.1137 45.3703 41.1293 45.2637 41.1293H44.3842V41.7222H45.3369C45.5501 41.7222 45.7411 41.6845 45.9099 41.609C46.0787 41.5334 46.2119 41.4224 46.3097 41.2758C46.4074 41.1248 46.4562 40.9405 46.4562 40.7228C46.4562 40.3942 46.3474 40.1543 46.1298 40.0033C45.9166 39.8478 45.6523 39.7701 45.3369 39.7701H44.3842V40.3098Z" fill="black"/>
<path d="M47.4943 40.403H49.8395V39.8101H47.4943V40.403ZM49.4531 38.6575V41.7222H50.1593V38.6575H49.4531ZM47.1812 38.6575V41.7222H47.8874V38.6575H47.1812Z" fill="black"/>
<path d="M53.9834 38.6575V41.7222H54.7096V38.6575H53.9834ZM51.0119 38.6575V41.7222H51.7314V38.6575H51.0119ZM51.5116 40.3098H52.3977C52.5576 40.3098 52.6797 40.3453 52.7641 40.4164C52.8485 40.4874 52.8907 40.5896 52.8907 40.7228C52.8907 40.8072 52.8707 40.8805 52.8307 40.9427C52.7908 41.0049 52.7352 41.0515 52.6642 41.0826C52.5931 41.1137 52.5043 41.1293 52.3977 41.1293H51.5116V41.7222H52.4643C52.6775 41.7222 52.8685 41.6845 53.0373 41.609C53.2061 41.5334 53.3393 41.4224 53.437 41.2758C53.5347 41.1248 53.5836 40.9405 53.5836 40.7228C53.5836 40.3942 53.4748 40.1543 53.2571 40.0033C53.0439 39.8478 52.7797 39.7701 52.4643 39.7701H51.5116V40.3098Z" fill="black"/>
<path d="M58.3365 39.3237L58.3698 38.4243L55.6182 41.056L55.5849 41.9554L58.3365 39.3237ZM56.2911 38.6575H55.5849V41.9554L56.2911 41.1426V38.6575ZM58.3698 38.4243L57.6636 39.2371V41.7222H58.3698V38.4243ZM55.938 37.0918C55.938 37.2517 55.978 37.4049 56.0579 37.5515C56.1379 37.6981 56.2578 37.8158 56.4177 37.9046C56.5776 37.9934 56.773 38.0379 57.004 38.0379C57.2394 38.0379 57.4349 37.9934 57.5903 37.9046C57.7502 37.8158 57.8701 37.6981 57.9501 37.5515C58.0345 37.4049 58.0767 37.2517 58.0767 37.0918H57.5237C57.5237 37.1584 57.5059 37.2272 57.4704 37.2983C57.4393 37.3694 57.386 37.4293 57.3105 37.4782C57.235 37.5271 57.1328 37.5515 57.004 37.5515C56.8752 37.5515 56.773 37.5271 56.6975 37.4782C56.622 37.4293 56.5665 37.3694 56.531 37.2983C56.4999 37.2272 56.4843 37.1584 56.4843 37.0918H55.938Z" fill="black"/>
<path d="M31.2119 44.9036H28.5003V47.9683H29.2065V45.5498H30.5057V47.9683H31.2119V44.9036Z" fill="black"/>
<path d="M32.7638 49.4341V44.9036H32.0376V49.4341H32.7638ZM35.3022 46.4359C35.3022 46.0939 35.2334 45.803 35.0957 45.5631C34.958 45.3233 34.7759 45.1412 34.5493 45.0168C34.3228 44.888 34.0763 44.8236 33.8098 44.8236C33.5477 44.8236 33.319 44.8902 33.1236 45.0235C32.9326 45.1523 32.7838 45.3366 32.6772 45.5765C32.575 45.8163 32.5239 46.1028 32.5239 46.4359C32.5239 46.7646 32.575 47.0511 32.6772 47.2954C32.7838 47.5352 32.9326 47.7218 33.1236 47.855C33.319 47.9839 33.5477 48.0483 33.8098 48.0483C34.0763 48.0483 34.3228 47.9861 34.5493 47.8617C34.7759 47.7329 34.958 47.5486 35.0957 47.3087C35.2334 47.0644 35.3022 46.7735 35.3022 46.4359ZM34.556 46.4359C34.556 46.6403 34.5138 46.8157 34.4294 46.9623C34.345 47.1044 34.2318 47.2132 34.0896 47.2887C33.9519 47.3598 33.7987 47.3953 33.6299 47.3953C33.4922 47.3953 33.3568 47.3598 33.2235 47.2887C33.0903 47.2132 32.9792 47.1044 32.8904 46.9623C32.806 46.8201 32.7638 46.6447 32.7638 46.4359C32.7638 46.2272 32.806 46.0517 32.8904 45.9096C32.9792 45.7675 33.0903 45.6609 33.2235 45.5898C33.3568 45.5143 33.4922 45.4765 33.6299 45.4765C33.7987 45.4765 33.9519 45.5143 34.0896 45.5898C34.2318 45.6609 34.345 45.7697 34.4294 45.9163C34.5138 46.0584 34.556 46.2316 34.556 46.4359Z" fill="black"/>
<path d="M35.6877 46.4359C35.6877 46.7469 35.7588 47.0245 35.9009 47.2687C36.0475 47.5086 36.2452 47.6974 36.4939 47.8351C36.7426 47.9683 37.0247 48.0349 37.34 48.0349C37.6554 48.0349 37.9352 47.9683 38.1795 47.8351C38.4282 47.6974 38.6259 47.5086 38.7725 47.2687C38.9191 47.0245 38.9923 46.7469 38.9923 46.4359C38.9923 46.1206 38.9191 45.843 38.7725 45.6031C38.6259 45.3633 38.4282 45.1767 38.1795 45.0435C37.9352 44.9058 37.6554 44.8369 37.34 44.8369C37.0247 44.8369 36.7426 44.9058 36.4939 45.0435C36.2452 45.1767 36.0475 45.3633 35.9009 45.6031C35.7588 45.843 35.6877 46.1206 35.6877 46.4359ZM36.4273 46.4359C36.4273 46.2449 36.4673 46.0762 36.5472 45.9296C36.6272 45.783 36.736 45.6697 36.8737 45.5898C37.0114 45.5098 37.1668 45.4699 37.34 45.4699C37.5088 45.4699 37.6621 45.5098 37.7998 45.5898C37.9419 45.6697 38.0529 45.783 38.1329 45.9296C38.2128 46.0762 38.2528 46.2449 38.2528 46.4359C38.2528 46.6269 38.2128 46.7957 38.1329 46.9423C38.0529 47.0844 37.9419 47.1977 37.7998 47.2821C37.6621 47.362 37.5088 47.402 37.34 47.402C37.1668 47.402 37.0114 47.362 36.8737 47.2821C36.736 47.1977 36.6272 47.0844 36.5472 46.9423C36.4673 46.7957 36.4273 46.6269 36.4273 46.4359Z" fill="black"/>
<path d="M39.8017 46.6025H42.4933C42.5022 46.5625 42.5067 46.527 42.5067 46.4959C42.5067 46.4604 42.5067 46.4293 42.5067 46.4026C42.5067 46.0784 42.4445 45.8008 42.3201 45.5698C42.1957 45.3344 42.0181 45.1545 41.7871 45.0301C41.5606 44.9013 41.2896 44.8369 40.9743 44.8369C40.6856 44.8369 40.4302 44.8902 40.2081 44.9968C39.986 45.1034 39.8061 45.2522 39.6684 45.4432C39.5352 45.6342 39.4463 45.8563 39.4019 46.1095C39.393 46.1628 39.3864 46.2161 39.3819 46.2694C39.3775 46.3227 39.3753 46.3782 39.3753 46.4359C39.3753 46.7424 39.4397 47.0178 39.5685 47.2621C39.6973 47.5019 39.8794 47.6907 40.1148 47.8284C40.3502 47.9661 40.6256 48.0349 40.941 48.0349C41.2208 48.0349 41.454 48.0016 41.6405 47.935C41.8315 47.8639 41.9914 47.7662 42.1202 47.6418C42.2535 47.5175 42.3712 47.3731 42.4733 47.2088L41.8537 46.9556C41.796 47.0533 41.7249 47.1399 41.6405 47.2154C41.5561 47.2865 41.4584 47.342 41.3474 47.382C41.2408 47.422 41.1164 47.442 40.9743 47.442C40.8011 47.442 40.6478 47.4064 40.5146 47.3354C40.3858 47.2599 40.2836 47.1488 40.2081 47.0022C40.137 46.8512 40.1015 46.6625 40.1015 46.4359L40.1148 46.2494C40.1148 46.0717 40.1526 45.9185 40.2281 45.7897C40.3036 45.6564 40.4057 45.5565 40.5346 45.4899C40.6634 45.4188 40.8077 45.3833 40.9676 45.3833C41.1231 45.3833 41.2541 45.4144 41.3607 45.4765C41.4673 45.5343 41.5495 45.6187 41.6072 45.7297C41.6694 45.8363 41.7094 45.9629 41.7271 46.1095H39.8017V46.6025Z" fill="black"/>
<path d="M43.1067 44.9036V47.9683H43.8129V44.9036H43.1067ZM44.9389 44.9036L43.613 46.1694L45.0788 47.9683H45.9516L44.4992 46.1694L45.8183 44.9036H44.9389Z" fill="black"/>
<path d="M45.939 44.9036V45.5365H47.8778V44.9036H45.939ZM46.5587 45.0368V47.9683H47.2649V45.0368H46.5587Z" fill="black"/>
<path d="M12.5742 32.978H63.3758" stroke="black"/>
<path fill-rule="evenodd" clip-rule="evenodd" d="M23.0302 16.058C22.3904 16.302 22.2035 16.4468 21.9186 16.9193L21.6697 17.3319L21.8562 17.4032C22.0008 17.4584 22.0753 17.4289 22.1881 17.2721C22.2681 17.1608 22.4071 16.9707 22.4969 16.8496C22.7758 16.4733 23.3491 16.2372 23.9838 16.2372C24.4782 16.2372 24.5778 16.2664 24.805 16.4782C25.0139 16.6728 25.0809 16.829 25.1528 17.2889C25.2506 17.9145 25.199 18.5598 25.0145 19.0154C24.8385 19.4501 24.3513 19.6508 23.4662 19.6533C22.9009 19.6548 22.7656 19.6806 22.7656 19.7866C22.7656 19.8931 22.9065 19.9189 23.5087 19.9223C24.3967 19.9273 24.7345 20.0683 25.0734 20.5754C25.3017 20.9169 25.3078 20.958 25.3106 22.1617C25.3134 23.3867 25.3113 23.4005 25.0685 23.7463C24.7635 24.1809 24.353 24.3878 23.7963 24.3878C22.9557 24.3878 21.9227 23.7984 22.14 23.4429C22.1898 23.3613 22.3988 23.1728 22.6042 23.0238C22.9333 22.7853 22.981 22.7085 23.0043 22.3801C23.037 21.9197 22.8597 21.6149 22.4586 21.442C22.0735 21.2759 21.5612 21.4104 21.214 21.7686C20.976 22.0143 20.9649 22.0583 20.9964 22.633C21.0247 23.1499 21.0677 23.2874 21.2899 23.5722C21.9364 24.4005 22.613 24.6481 24.2343 24.6497C25.5937 24.651 26.2227 24.5002 26.9473 23.9995C27.673 23.4981 27.9729 23.0215 28.0175 22.2996C28.0851 21.2034 27.5401 20.5482 26.1444 20.0475L25.3791 19.7731L26.1249 19.5662C26.9334 19.342 27.4822 18.9896 27.6792 18.5682C27.7424 18.4327 27.7964 18.0895 27.799 17.8055C27.8061 17.0268 27.4143 16.5272 26.4954 16.1429C26.1104 15.9819 25.8272 15.945 24.7614 15.917C23.6482 15.8878 23.4297 15.9056 23.0302 16.058ZM12.8856 16.1204C12.8545 16.1524 12.829 18.0489 12.829 20.3347V24.4907L15.4405 24.4567C18.0137 24.4232 18.0606 24.4193 18.6351 24.1934C20.0401 23.6406 20.4925 22.19 19.6159 21.0479C19.2512 20.5726 18.7921 20.2865 17.9247 19.9934C17.5276 19.8593 17.2792 19.7475 17.3726 19.745C17.6557 19.7376 18.6145 19.4 18.9374 19.1939C19.5699 18.7907 19.8574 18.204 19.7485 17.5389C19.6342 16.8405 19.0259 16.388 17.93 16.1863C17.2593 16.0628 12.9954 16.007 12.8856 16.1204ZM29.6387 16.0973C29.6187 16.1179 29.6125 18.0115 29.6251 20.3051L29.648 24.4754H30.8353H32.0227V20.4001V16.3248H32.7004C33.46 16.3248 33.9654 16.4837 34.3449 16.8419C34.6323 17.1131 34.9836 17.7928 35.1197 18.3406C35.2024 18.6738 35.2534 18.7392 35.4484 18.7629L35.6791 18.7909L35.6556 17.4483L35.6321 16.1057L32.6536 16.0827C31.0155 16.0701 29.6587 16.0766 29.6387 16.0973ZM37.1184 16.1923C37.1184 16.2814 37.2027 16.3248 37.3759 16.3248C37.7442 16.3248 38.1865 16.5374 38.3481 16.792C38.4715 16.9863 38.4842 17.362 38.4609 20.1515L38.4348 23.2923L38.2218 23.6848C37.9975 24.0981 37.6211 24.3281 37.4529 24.1546C37.3905 24.0902 37.4289 23.9823 37.5807 23.7961C37.8779 23.4317 37.8834 22.835 37.5929 22.4865C37.4037 22.2595 37.3409 22.2406 36.7787 22.2406C36.2164 22.2406 36.1537 22.2595 35.9645 22.4865C35.8036 22.6795 35.7595 22.8322 35.7595 23.1966C35.7595 23.7839 36.0009 24.1822 36.5213 24.4535C37.4651 24.9455 38.4585 24.4859 38.7282 23.4324C38.7726 23.259 38.8441 21.8352 38.8871 20.2687C38.9764 17.0136 39.0073 16.8364 39.5388 16.5261C39.8193 16.3623 40.008 16.3275 40.6217 16.3262L41.3648 16.3248V20.4001V24.4754H42.5971H43.8293L43.8073 20.2906L43.7852 16.1057L40.4518 16.0828C37.5242 16.0627 37.1184 16.076 37.1184 16.1923ZM48.3289 16.1225C47.0745 16.2658 46.3348 16.6527 46.0853 17.2963C45.6516 18.4149 46.2403 19.4557 47.522 19.8364C47.849 19.9335 48.193 20.0482 48.2864 20.0911C48.4403 20.1618 48.4353 20.1697 48.2331 20.1751C47.9327 20.183 47.0555 20.5335 46.7921 20.7507C46.4351 21.0452 46.2236 21.6359 46.1195 22.6294C45.9867 23.8983 45.7966 24.2266 45.306 24.0342C44.8092 23.8391 44.7963 24.2242 45.2927 24.4329C46.0854 24.7664 47.3958 24.6588 47.7553 24.2308C47.991 23.95 48.1568 23.2934 48.2355 22.3282C48.3767 20.5971 48.6694 20.2372 49.9425 20.2293L50.6644 20.2248L50.6871 22.3525L50.7099 24.4802L51.9186 24.4559L53.1273 24.4316V20.2687V16.1057L50.8767 16.0971C49.6389 16.0924 48.4923 16.1038 48.3289 16.1225ZM55.4345 16.1204C55.3038 16.2552 55.3981 16.3248 55.711 16.3248C56.1389 16.3248 56.5396 16.6556 56.6152 17.071C56.6757 17.4043 56.5196 20.9426 56.3913 22.141C56.3386 22.6344 56.2288 23.098 56.0902 23.4118C55.7652 24.1485 55.6869 24.2125 55.1099 24.2125H54.6135L54.5955 25.4395C54.5616 27.758 54.5464 27.5703 54.7695 27.5872C54.9959 27.6045 55.0525 27.4898 55.2482 26.619C55.4577 25.6867 55.8776 24.9549 56.3907 24.6277C56.6684 24.4505 56.7919 24.4404 58.685 24.4384C60.4662 24.4366 60.7361 24.4554 61.1428 24.6088C61.8951 24.8926 62.3854 25.6267 62.7806 27.0608C62.8848 27.4386 62.9341 27.503 63.1386 27.5275L63.3758 27.556L63.3152 25.95C63.282 25.0666 63.2382 24.3144 63.218 24.2782C63.1978 24.2421 62.916 24.2125 62.5917 24.2125H62.0023V20.1372V16.0619H58.7467C56.9561 16.0619 55.4656 16.0882 55.4345 16.1204ZM16.8611 16.4612C17.0143 16.5362 17.2303 16.6971 17.3411 16.8188C17.5248 17.0205 17.5425 17.1154 17.5425 17.9026C17.5425 18.6359 17.5162 18.8025 17.3671 19.013C17.0991 19.3918 16.6098 19.6022 15.9076 19.6406L15.2919 19.6744V17.9996V16.3248H15.9373C16.3454 16.3248 16.685 16.375 16.8611 16.4612ZM50.7068 18.1215V19.9181L49.9637 19.9179C49.1349 19.9178 48.7583 19.7804 48.4686 19.3726C48.1182 18.8793 48.1359 17.3508 48.4977 16.8758C48.7724 16.5152 49.2829 16.3354 50.0486 16.3297L50.7068 16.3248V18.1215ZM59.5818 20.2687V24.1687L57.9045 24.1924C56.982 24.2055 56.2272 24.1944 56.2272 24.1676C56.2272 24.1409 56.3178 23.933 56.4284 23.7057C56.7895 22.9645 56.8946 22.2672 56.9933 19.9619C57.1105 17.2236 57.1774 16.6832 57.4251 16.4756C57.584 16.3423 57.755 16.3231 58.5965 16.3441L59.5818 16.3686V20.2687ZM16.8908 20.0537C17.4887 20.3006 17.7535 20.8935 17.7543 21.9877C17.755 22.7861 17.6239 23.4962 17.4357 23.7145C17.1988 23.9893 16.7695 24.1309 16.0051 24.1866L15.2919 24.2385V22.0784V19.9181H15.9272C16.3023 19.9181 16.6969 19.9736 16.8908 20.0537ZM13.059 25.6696C13.0259 25.7037 12.9986 25.9124 12.9983 26.1333C12.9978 26.6504 12.8523 27.1886 12.6963 27.2503C12.6191 27.2809 12.5742 27.424 12.5742 27.6399C12.5742 27.9226 12.6033 27.9811 12.7441 27.9811C12.8568 27.9811 12.9139 27.9226 12.9139 27.8074C12.9139 27.6028 13.1627 27.518 13.6439 27.5586C13.9131 27.5814 13.9806 27.6238 14.0027 27.7839C14.0223 27.9266 14.0868 27.9811 14.2363 27.9811C14.4204 27.9811 14.4426 27.9433 14.4426 27.6305C14.4426 27.4377 14.4059 27.2799 14.3609 27.2799C14.3159 27.2799 14.2682 26.9152 14.2548 26.4692L14.2303 25.6586L13.6747 25.6331C13.3691 25.619 13.092 25.6355 13.059 25.6696ZM15.9898 26.5856L16.0138 27.565L16.5234 27.5651C16.918 27.5651 17.0389 27.5342 17.0594 27.4278C17.0796 27.3233 16.9985 27.284 16.7197 27.2634C16.391 27.2389 16.3508 27.2114 16.3267 26.9951C16.3012 26.7671 16.3184 26.7541 16.6452 26.7541C16.9303 26.7541 16.9905 26.7245 16.9905 26.5841C16.9905 26.4509 16.9215 26.4083 16.672 26.3869C16.4189 26.3653 16.3535 26.3237 16.3535 26.1844C16.3535 26.0404 16.4189 26.0043 16.7197 25.9819C17.0099 25.9603 17.0802 25.924 17.0586 25.8066C17.037 25.6899 16.9185 25.6531 16.4985 25.6324L15.9657 25.6063L15.9898 26.5856ZM18.9438 26.1256C18.9438 26.8602 18.867 27.1778 18.6741 27.241C18.4571 27.3121 18.5101 27.5788 18.7482 27.6139C19.0247 27.6548 19.1995 27.3024 19.2576 26.5875C19.3048 26.0072 19.3217 25.9653 19.5082 25.9653C19.7023 25.9653 19.7082 25.9869 19.7082 26.6996C19.7082 27.2542 19.7402 27.4612 19.8391 27.5459C20.0754 27.7482 20.14 27.5195 20.1147 26.5712L20.0903 25.6586L19.5171 25.6326L18.9438 25.6068V26.1256ZM22.0666 25.7989C21.5294 26.2125 21.6219 27.1965 22.2292 27.5289C22.7094 27.7918 23.3388 27.4829 23.528 26.8915C23.6512 26.5063 23.5684 26.1938 23.2585 25.874C22.9473 25.5528 22.4286 25.5201 22.0666 25.7989ZM25.162 26.5979L25.186 27.5811L25.6106 27.5573C26.2099 27.5237 26.3075 27.4801 26.4008 27.2039C26.4824 26.9622 26.408 26.6934 26.2246 26.5678C26.1767 26.5351 26.1823 26.489 26.2385 26.4531C26.2902 26.4202 26.3325 26.2638 26.3325 26.1056C26.3325 25.7582 26.0947 25.6148 25.5189 25.6148H25.1379L25.162 26.5979ZM28.5464 25.9872C28.0218 27.1933 27.9017 27.7004 28.1655 27.596C28.2393 27.5668 28.3158 27.5429 28.3353 27.5429C28.3548 27.5429 28.3708 27.4851 28.3708 27.4145C28.3708 27.0639 29.2011 27.0039 29.3457 27.344C29.4423 27.5713 29.5741 27.6421 29.7235 27.5468C29.8266 27.481 29.6989 27.0539 29.2439 25.9434C29.0492 25.4679 28.7644 25.4857 28.5464 25.9872ZM31.6236 25.7197C31.3433 25.8595 31.2855 26.2799 31.5047 26.5858L31.6839 26.8359L31.5139 27.1237C31.3044 27.4783 31.2974 27.624 31.4919 27.5856C31.5737 27.5695 31.6622 27.5533 31.6886 27.5496C31.715 27.5458 31.8237 27.3831 31.93 27.1877C32.1477 26.7882 32.3133 26.7752 32.3334 27.1562C32.3408 27.2966 32.3504 27.457 32.3546 27.5127C32.359 27.5698 32.4365 27.5941 32.5323 27.5683C32.689 27.5259 32.7021 27.4487 32.7021 26.5685V25.6148L32.2563 25.6207C32.0111 25.624 31.7263 25.6685 31.6236 25.7197ZM36.9238 25.6694C36.8907 25.7036 36.8636 26.1391 36.8636 26.6373C36.8636 27.4784 36.8754 27.5429 37.0301 27.5429C37.1811 27.5429 37.199 27.4707 37.2212 26.776L37.2458 26.0091L37.6544 25.9822C37.9849 25.9604 38.0579 25.9268 38.0358 25.8069C38.0144 25.6906 37.8977 25.6531 37.4962 25.633C37.2145 25.6189 36.9569 25.6353 36.9238 25.6694ZM40.0732 25.8076C40.003 25.9184 39.9163 26.1077 39.8807 26.2282C39.845 26.3487 39.7467 26.6065 39.6623 26.801C39.5779 26.9954 39.4834 27.2586 39.4525 27.3859C39.4064 27.5755 39.4237 27.6131 39.5479 27.5943C39.6313 27.5817 39.7398 27.4959 39.789 27.4038C39.9145 27.1688 40.0145 27.1075 40.275 27.106C40.589 27.1041 40.7703 27.1883 40.7703 27.3359C40.7703 27.4772 41.1184 27.6448 41.2166 27.5508C41.2518 27.517 41.1166 27.0775 40.9161 26.574C40.5208 25.5814 40.3277 25.4058 40.0732 25.8076ZM42.8652 25.6732C42.834 25.7053 42.8085 25.786 42.8085 25.8524C42.8085 25.9417 42.8819 25.9591 43.09 25.9188C43.4361 25.8517 43.6636 26.0537 43.488 26.2721C43.4298 26.3444 43.3077 26.4035 43.2165 26.4035C42.9744 26.4035 43.0579 26.6907 43.3185 26.7542C43.4733 26.7919 43.5304 26.8638 43.5304 27.0209C43.5304 27.2146 43.4954 27.2361 43.18 27.2361C42.9873 27.2361 42.8221 27.2667 42.8127 27.304C42.7615 27.5096 42.8974 27.5867 43.3115 27.5867C43.678 27.5867 43.7867 27.5497 43.9201 27.3798C44.1248 27.119 44.1258 26.9227 43.9237 26.6989C43.7862 26.5465 43.7805 26.5011 43.8812 26.3589C44.1623 25.9622 43.893 25.6148 43.3044 25.6148C43.0939 25.6148 42.8963 25.641 42.8652 25.6732ZM45.6714 25.6694C45.5759 25.7679 45.5993 27.5421 45.6961 27.5487C45.7428 27.5519 45.9721 27.5545 46.2057 27.5545C46.8066 27.5545 46.8002 27.556 46.8002 27.4164C46.8002 27.3303 46.685 27.2814 46.4392 27.263C46.1021 27.2379 46.0783 27.219 46.0783 26.9777C46.0783 26.7416 46.104 26.7189 46.3755 26.7147C46.5812 26.7117 46.6728 26.6698 46.6728 26.5788C46.6728 26.4954 46.5642 26.4313 46.3755 26.4035C46.149 26.3701 46.0783 26.318 46.0783 26.1844C46.0783 26.0404 46.1437 26.0043 46.4445 25.9819C46.7347 25.9603 46.805 25.924 46.7833 25.8066C46.7619 25.6907 46.6448 25.6531 46.2438 25.633C45.9621 25.6189 45.7045 25.6353 45.6714 25.6694ZM48.2439 25.7807C48.2439 25.9042 48.3107 25.9616 48.4775 25.9814C48.7087 26.0089 48.7115 26.0168 48.7535 26.7769C48.7769 27.1992 48.8246 27.5443 48.8597 27.5437C48.8947 27.5433 48.9807 27.5429 49.0507 27.5429C49.1545 27.5429 49.1781 27.3968 49.1781 26.7541V25.9653H49.4391C49.6419 25.9653 49.6938 25.9311 49.6717 25.8119C49.648 25.6832 49.5308 25.6545 48.9437 25.6332C48.2953 25.6095 48.2439 25.6204 48.2439 25.7807ZM51.7035 25.8996C51.4573 26.4527 51.1315 27.3553 51.1315 27.4839C51.1315 27.6722 51.4832 27.5584 51.5351 27.3534C51.62 27.0184 52.299 27.0244 52.4612 27.3615C52.5614 27.5696 52.915 27.6878 52.915 27.5131C52.915 27.4249 52.601 26.5586 52.3459 25.9434C52.1666 25.5106 51.8851 25.4914 51.7035 25.8996ZM22.973 26.0725C23.1232 26.2936 23.1448 26.7231 23.0225 27.0551C22.9553 27.2373 22.8833 27.2799 22.6424 27.2799C22.3993 27.2799 22.3217 27.233 22.2157 27.0214C22.0477 26.686 22.052 26.4464 22.2319 26.1322C22.4143 25.8134 22.7774 25.7842 22.973 26.0725ZM32.3611 26.217C32.3587 26.4853 32.2225 26.6055 31.9893 26.5451C31.6968 26.4694 31.6764 26.0831 31.959 25.9726C32.1774 25.8871 32.3631 26 32.3611 26.217ZM13.8306 26.6007L13.8057 27.2361L13.5248 27.264L13.2439 27.2918L13.2979 26.7381C13.3702 25.9972 13.3841 25.9653 13.6368 25.9653C13.8541 25.9653 13.8554 25.9698 13.8306 26.6007ZM25.9756 26.1551C26.0076 26.3287 25.6778 26.4641 25.5484 26.3305C25.5002 26.2807 25.4847 26.1755 25.5141 26.0965C25.5827 25.912 25.9391 25.9572 25.9756 26.1551ZM29.0021 26.3159C29.0286 26.4123 29.0719 26.57 29.0984 26.6664C29.1376 26.8091 29.106 26.8417 28.9285 26.8417C28.7001 26.8417 28.6628 26.7275 28.764 26.3378C28.8275 26.0935 28.9381 26.0834 29.0021 26.3159ZM40.4306 26.2173C40.4306 26.2594 40.4544 26.4172 40.4836 26.5678C40.5326 26.8206 40.519 26.8417 40.3071 26.8417C40.0924 26.8417 40.0813 26.8231 40.1365 26.5569C40.1692 26.4003 40.2126 26.2424 40.2333 26.2063C40.2851 26.1154 40.4306 26.1236 40.4306 26.2173ZM52.2317 26.7322C52.2338 26.7926 52.1371 26.8417 52.0165 26.8417C51.8138 26.8417 51.8018 26.8204 51.8566 26.5569C51.8892 26.4003 51.9377 26.234 51.9645 26.1877C52.0139 26.1019 52.2247 26.5315 52.2317 26.7322ZM26.0168 26.8636C26.0784 27.0412 25.9154 27.2799 25.7324 27.2799C25.5447 27.2799 25.4386 27.0883 25.514 26.8855C25.573 26.7267 25.9633 26.7097 26.0168 26.8636Z" fill="black"/>
</svg>
