<svg width="80" height="80" viewBox="0 0 80 80" fill="none" xmlns="http://www.w3.org/2000/svg">
<circle cx="40" cy="40" r="40" fill="black"/>
<circle cx="40" cy="40" r="31" stroke="white" stroke-width="2"/>
<path d="M40 11L40.0056 39.9715L51.0979 13.2075L40.0161 39.9759L60.506 19.4939L40.0241 39.9839L66.7925 28.9021L40.0285 39.9944L69 40L40.0285 40.0056L66.7925 51.0979L40.0241 40.0161L60.506 60.506L40.0161 40.0241L51.0979 66.7925L40.0056 40.0285L40 69L39.9944 40.0285L28.9021 66.7925L39.9839 40.0241L19.4939 60.506L39.9759 40.0161L13.2075 51.0979L39.9715 40.0056L11 40L39.9715 39.9944L13.2075 28.9021L39.9759 39.9839L19.4939 19.4939L39.9839 39.9759L28.9021 13.2075L39.9944 39.9715L40 11Z" fill="#F0C3D2" stroke="white"/>
<circle cx="40" cy="40" r="26" fill="black"/>
<path d="M40 21V40L50 35.5958" stroke="white" stroke-width="2"/>
</svg>
