<svg width="80" height="80" viewBox="0 0 80 80" fill="none" xmlns="http://www.w3.org/2000/svg">
<circle cx="40" cy="40" r="40" fill="#FF5A26"/>
<path d="M8.2105 32.2971L8.90208 30.4952L14.6897 32.7165L15.137 31.5511L9.34935 29.3298L10.0447 27.5181L8.97726 27.1084L7.14307 31.8874L8.2105 32.2971Z" fill="black"/>
<path d="M15.925 25.7118L18.2875 22.6326L17.3084 22.1855L15.2333 24.8902L15.925 25.7118ZM14.4137 22.1328L17.2863 22.8692L17.5468 23.0294L19.926 23.5988L20.7752 22.4919L12.4414 20.6196L16.4078 28.1843L17.257 27.0775L16.0538 24.8719L15.8502 24.6892L14.4137 22.1328Z" fill="black"/>
<path d="M24.598 12.3032L23.714 10.851L21.7308 19.7566L22.6148 21.2088L24.598 12.3032ZM19.4241 14.0856L18.4047 14.75L22.6148 21.2088L22.8781 19.3844L19.4241 14.0856ZM23.714 10.851L23.4679 12.7018L26.9047 17.9742L27.9241 17.3098L23.714 10.851ZM18.7748 11.8794C18.9161 12.0961 19.1025 12.2668 19.334 12.3914C19.5616 12.5101 19.821 12.5622 20.1121 12.5478C20.3993 12.5275 20.6953 12.4181 20.9999 12.2195C21.3104 12.0171 21.5329 11.7886 21.6674 11.5339C21.7981 11.2735 21.8551 11.0151 21.8384 10.7589C21.8178 10.4968 21.7369 10.2574 21.5956 10.0407L20.875 10.5104C20.9323 10.5982 20.9681 10.7043 20.9823 10.8286C21.0024 10.9491 20.9807 11.0759 20.9173 11.2091C20.8597 11.3384 20.7459 11.4585 20.576 11.5692C20.412 11.6761 20.2563 11.7317 20.1088 11.736C19.9672 11.7365 19.8424 11.7052 19.7345 11.642C19.6324 11.575 19.5527 11.4975 19.4954 11.4097L18.7748 11.8794Z" fill="black"/>
<path d="M30.9329 11.3806L33.8872 14.6369L35.309 10.4764L36.7165 14.7485L37.9698 14.4896L35.4236 7.14307L33.4733 12.6338L29.5169 8.3635L30.0908 16.1175L31.344 15.8586L30.9329 11.3806Z" fill="black"/>
<path d="M47.8076 8.146L42.4726 7.2968L41.7636 11.7512C41.7229 12.0067 41.6614 12.2377 41.579 12.4441C41.5035 12.6516 41.4082 12.8276 41.2931 12.9721C41.1861 13.1109 41.0632 13.2152 40.9246 13.2852C40.7871 13.3483 40.6355 13.3667 40.4698 13.3403L40.3032 14.3865C40.8074 14.4668 41.2399 14.4188 41.6007 14.2426C41.9685 14.0674 42.2642 13.7888 42.4879 13.4066C42.7127 13.0175 42.8674 12.5571 42.9521 12.0253L43.4946 8.61721L46.3847 9.07726L45.4102 15.1995L46.6533 15.3973L47.8076 8.146Z" fill="black"/>
<path d="M50.9195 14.8849L54.3652 16.671L54.6338 15.6287L51.6071 14.0598L50.9195 14.8849ZM54.1781 12.7696L53.9567 15.7267L53.8447 16.0113L53.7012 18.4535L54.9398 19.0955L55.3222 10.5625L48.5699 15.7937L49.8085 16.4357L51.769 14.8645L51.9131 14.632L54.1781 12.7696Z" fill="black"/>
<path d="M65.6851 21.1061L66.9612 19.9827L57.8464 19.5806L56.5703 20.704L65.6851 21.1061ZM63.029 16.3216L62.1972 15.4336L56.5703 20.704L58.4126 20.6455L63.029 16.3216ZM66.9612 19.9827L65.0959 20.0627L60.5025 24.3651L61.3343 25.2532L66.9612 19.9827ZM65.0885 15.2981C64.8996 15.475 64.764 15.6882 64.6817 15.9378C64.6044 16.1827 64.5982 16.4472 64.6631 16.7313C64.7331 17.0106 64.8924 17.283 65.141 17.5484C65.3944 17.8189 65.6582 17.9982 65.9323 18.0864C66.2116 18.1697 66.4759 18.1808 66.7253 18.1197C66.9798 18.0538 67.2014 17.9324 67.3903 17.7556L66.8023 17.1278C66.7257 17.1995 66.6275 17.2532 66.5076 17.2888C66.3925 17.3296 66.2638 17.3303 66.1216 17.2911C65.9842 17.2569 65.8462 17.1658 65.7076 17.0178C65.5737 16.8749 65.4918 16.7312 65.4619 16.5867C65.4368 16.4474 65.4459 16.3191 65.4893 16.2017C65.5375 16.0895 65.5999 15.9976 65.6765 15.9259L65.0885 15.2981Z" fill="black"/>
<path d="M66.2299 26.7387L68.3406 31.5285L69.3869 31.0674L67.2762 26.2777L66.2299 26.7387ZM71.6571 29.1959L64.9379 32.1568L65.4371 33.2895L72.1562 30.3285L71.6571 29.1959ZM69.669 24.6844L62.9499 27.6454L63.449 28.778L70.1681 25.8171L69.669 24.6844Z" fill="black"/>
<path d="M40.0325 39.9937L72.8574 40L40.0325 40.0064L70.3562 52.574L40.0275 40.0183L63.2337 63.2335L40.0185 40.0273L52.5742 70.356L40.0066 40.0323L40.0002 72.8572L39.9938 40.0323L27.4263 70.356L39.9819 40.0273L16.7667 63.2335L39.9729 40.0183L9.64416 52.574L39.9679 40.0064L7.14307 40L39.9679 39.9937" stroke="black"/>
<circle cx="39.9999" cy="39.9999" r="25.7143" fill="#FF5A26"/>
<circle cx="39.9999" cy="39.9999" r="21.4286" stroke="black"/>
<path d="M48.5 31L31 48.5" stroke="black"/>
<path d="M31 31L48.5 48.5" stroke="black"/>
</svg>
